<?xml version="1.0" standalone="no"?>
<!DOCTYPE svg PUBLIC "-//W3C//DTD SVG 1.1//EN" "http://www.w3.org/Graphics/SVG/1.1/DTD/svg11.dtd" >
<svg>
<metadata>
Created by FontForge 20110222 at Fri Apr  5 03:58:24 2013
 By Orthosie Webmaster
Copyright (c) 2010 by Nate Piekos. Blambot.com. All rights reserved.
</metadata>
<defs>
<font id="CrashLandingBBRegular" horiz-adv-x="326" >
  <font-face 
    font-family="CrashLandingBBRegular"
    font-weight="400"
    font-stretch="normal"
    units-per-em="1000"
    panose-1="2 0 5 6 0 0 0 2 0 4"
    ascent="750"
    descent="-250"
    x-height="500"
    cap-height="503"
    bbox="-16 -115 587 632"
    underline-thickness="50"
    underline-position="-50"
    unicode-range="U+0020-2122"
  />
<missing-glyph horiz-adv-x="254" 
d="M36 489h185v-483h-185v483zM104 32h49v428h-49v-428z" />
    <glyph glyph-name="copyright" unicode="&#x28;C&#x29;" horiz-adv-x="604" 
d="M253 170q1 -14 10.5 -23.5t25 -10.5t36.5 10t45 39l28 -29q-12 -17 -25 -30q-20 -18 -45.5 -30.5t-52.5 -15.5q-30 -4 -51.5 14.5t-29.5 43.5q-7 23 -7.5 48.5t4.5 51t15 49.5t24 44t32 37t41 28q17 9 41 14.5t44 2.5l-35 -184l-44 -13l-2 85q-17 -11 -29 -29
q-11 -16 -19 -40.5t-6 -61.5zM302 519q59 7 110.5 -7.5t90 -47t61 -79t22.5 -103.5t-22.5 -109.5t-61 -94.5t-90 -70t-110.5 -36t-110.5 7t-90 47.5t-61 79t-22.5 103.5t22.5 109.5t61 94.5t90 70t110.5 36zM299 24q46 6 86.5 28t70.5 55t47.5 74.5t17.5 85.5t-17.5 81
t-47.5 62t-70.5 37t-86.5 6t-86.5 -28t-71 -55t-48 -74.5t-17.5 -85.5t17.5 -81t48 -62.5t71 -37t86.5 -5.5z" />
    <glyph glyph-name="registered" unicode="&#x28;R&#x29;" horiz-adv-x="604" 
d="M362 241q-4 -5 -9 -10t-11.5 -11t-14.5 -14l111 -19l-15 -36l-167 -6l-3 -72l-42 -7l-20 186l-13 -6l-18 88q14 8 34 16.5t36 14.5q23 9 51 18t53 12t43.5 -2.5t23.5 -24.5q5 -16 3 -36q-2 -17 -10.5 -40.5t-31.5 -50.5zM326 297q3 17 -7 20t-24 1q-16 -3 -37 -12l-1 -92
q23 13 36 27t21 27q9 14 12 29zM302 519q59 7 110.5 -7.5t90 -47t61 -79t22.5 -103.5t-22.5 -109.5t-61 -94.5t-90 -70t-110.5 -36t-110.5 7t-90 47.5t-61 79t-22.5 103.5t22.5 109.5t61 94.5t90 70t110.5 36zM299 24q46 6 86.5 28t71 55t48 74.5t17.5 85.5t-17.5 81t-48 62
t-71 37t-86.5 6t-86.5 -28t-70.5 -55t-47.5 -74.5t-17.5 -85.5t17.5 -81t47.5 -62.5t70.5 -37t86.5 -5.5z" />
    <glyph glyph-name=".notdef" horiz-adv-x="254" 
d="M36 489h185v-483h-185v483zM104 32h49v428h-49v-428z" />
    <glyph glyph-name=".null" horiz-adv-x="0" 
 />
    <glyph glyph-name="nonmarkingreturn" horiz-adv-x="254" 
 />
    <glyph glyph-name="space" unicode=" " horiz-adv-x="254" 
 />
    <glyph glyph-name="space" unicode="&#xa0;" horiz-adv-x="254" 
 />
    <glyph glyph-name="exclam" unicode="!" horiz-adv-x="210" 
d="M168 75q0 -22 -19.5 -41.5t-47.5 -25.5q-28 -5 -47 6t-19 33t19 41.5t47 24.5q28 6 47.5 -5.5t19.5 -32.5zM62 147q-5 56 -7.5 117.5t-4.5 112.5q-2 60 -3 118l127 36q-10 -56 -17.5 -119.5t-12.5 -117.5q-6 -63 -11 -125z" />
    <glyph glyph-name="quotedbl" unicode="&#x22;" horiz-adv-x="354" 
d="M67 321l-25 150l131 39l-36 -166zM183 471l131 39l-36 -166l-70 -23z" />
    <glyph glyph-name="numbersign" unicode="#" horiz-adv-x="393" 
d="M323 270l50 19l-6 -81l-48 -23l-9 -163l-70 -26l-9 148l-72 -34l-5 -88l-70 -26l-5 76l-55 -26l1 114l48 18l-2 36l-47 -23l1 115l40 15l-8 142l123 35l-8 -138l46 17l-5 86l123 35l-5 -79l42 15l-6 -81l-40 -19zM226 235l-3 50l-56 -26l-3 -47z" />
    <glyph glyph-name="dollar" unicode="$" horiz-adv-x="300" 
d="M268 165q3 -35 -7 -64.5t-27 -52.5l3 -114l-42 -23l-12 87q-23 -17 -41 -27l-18 -9l-33 57q18 11 31.5 22.5t22.5 19.5q11 10 18 18q18 24 15.5 42t-15.5 31.5t-30.5 22.5t-29.5 14q-32 15 -50.5 33.5t-28 36t-12 32t-2.5 20.5q-1 33 5 57t16.5 42t23.5 31t27 23
q13 10 26 17l-16 74l69 33l3 -83q23 8 43.5 13t37.5 8q19 4 36 6l-35 -221l-56 -8l-13 82q-22 -5 -31.5 -17.5t-11.5 -24.5q-3 -15 1 -31q4 -13 13.5 -23t21.5 -18t24.5 -13.5t21.5 -9.5q29 -13 39.5 -37t12.5 -46z" />
    <glyph glyph-name="percent" unicode="%" horiz-adv-x="547" 
d="M380 303q32 0 59 -9.5t47 -26t31.5 -39.5t11.5 -50q0 -30 -14 -59t-38 -52t-56 -39t-69 -21q-51 -7 -92.5 9.5t-64.5 48.5l-61 -78l-66 19l110 175q-34 -2 -63 6.5t-50.5 25t-34 40t-12.5 52.5q0 30 14 59t38 52t56 39t69 21q45 6 81.5 -5.5t61.5 -34.5l43 69
q2 0 18.5 -10.5t35.5 -23.5l50 -34zM134 296q0 -17 17 -26.5t41 -5.5q24 3 41 17.5t17 31.5t-17 26.5t-41 6.5q-24 -4 -41 -18.5t-17 -31.5zM349 88q24 4 41 18.5t17 31.5t-17 26.5t-41 5.5q-24 -3 -41 -17.5t-17 -31.5t17 -26.5t41 -6.5z" />
    <glyph glyph-name="ampersand" unicode="&#x26;" horiz-adv-x="407" 
d="M388 345l-26 -347l-70 -26l-4 50q-39 -19 -69 -29t-52.5 -13t-38.5 0t-27 9q-26 13 -33 44q-5 27 5 51t25 41q17 20 41 38q-57 31 -79.5 62.5t-20 62.5t24.5 60t55 55t72 47.5t75 38t63.5 27t38.5 12.5l-23 -138q-46 -12 -78 -26.5t-52 -28.5t-29 -27.5t-9 -24.5
q1 -27 11 -38.5t24.5 -14t30.5 2t28 10.5l-5 68zM190 100q0 -16 9 -21t23.5 -4t30.5 6.5t30 11.5l-6 76q-35 -9 -52.5 -20.5t-25.5 -22.5q-9 -12 -9 -26z" />
    <glyph glyph-name="quotesingle" unicode="'" horiz-adv-x="186" 
d="M30 471l130 39l-35 -166l-71 -23l-24 150v0z" />
    <glyph glyph-name="parenleft" unicode="(" horiz-adv-x="355" 
d="M335 532q-48 -67 -73.5 -125.5t-35.5 -108t-6.5 -90t14.5 -73.5q26 -77 89 -129l-65 -32q-48 48 -76.5 96t-42 94t-14 88.5t5.5 80.5q15 88 66 168l138 31v0z" />
    <glyph glyph-name="parenright" unicode=")" horiz-adv-x="354" 
d="M19 504l138 27q51 -58 66 -140q6 -35 5.5 -78t-14 -95t-42 -111.5t-76.5 -127.5l-65 4q63 79 89 166q11 37 14 79.5t-6.5 88t-35.5 93t-73 94.5z" />
    <glyph glyph-name="asterisk" unicode="*" horiz-adv-x="334" 
d="M323 337l-28 -46l-89 25l-5 -82l-48 -15l-5 71l-66 -57l-41 80l53 35l-82 23l43 78l85 -36l-5 89l84 21l-6 -98l71 47l22 -49l-62 -53l79 -33v0z" />
    <glyph glyph-name="plus" unicode="+" horiz-adv-x="225" 
d="M208 241l-55 -29l-5 -86l-63 -24l-7 70l-62 -32l2 114l50 17l-7 72q1 0 16.5 3t34.5 8l50 12l-3 -64l55 19z" />
    <glyph glyph-name="comma" unicode="," horiz-adv-x="203" 
d="M51 107l135 19l-61 -158l-73 -12l-1 151v0z" />
    <glyph glyph-name="hyphen" unicode="-" horiz-adv-x="211" 
d="M16 228l188 66l-5 -80l-184 -100z" />
    <glyph glyph-name="period" unicode="." horiz-adv-x="194" 
d="M164 66q0 -21 -19.5 -40.5t-47.5 -25.5q-27 -5 -46.5 6t-19.5 33t19.5 41.5t46.5 24.5q28 6 47.5 -5.5t19.5 -33.5z" />
    <glyph glyph-name="slash" unicode="/" horiz-adv-x="424" 
d="M317 505q2 0 18.5 -10.5t35.5 -23.5l50 -34l-351 -450l-66 19z" />
    <glyph glyph-name="zero" unicode="0" horiz-adv-x="517" 
d="M513 304q2 -53 -15.5 -104t-50.5 -93t-78.5 -71.5t-98.5 -39.5q-53 -11 -100.5 -0.5t-83.5 38.5t-58 70.5t-25 95.5q-2 53 16 103.5t51 92.5t78.5 71t98.5 40q52 11 99.5 0.5t83.5 -38t58.5 -70t24.5 -95.5zM265 71q31 7 57.5 25t46 44t30 57.5t9.5 64.5q-2 33 -15 59
t-34 43.5t-48.5 24t-58.5 -0.5t-57.5 -25t-46 -44t-30 -57.5t-8.5 -64.5q1 -33 14 -59t34 -43.5t48.5 -24t58.5 0.5z" />
    <glyph glyph-name="one" unicode="1" horiz-adv-x="217" 
d="M99 -4l-18 320l-44 -20l-31 145l189 57l-26 -476z" />
    <glyph glyph-name="two" unicode="2" horiz-adv-x="385" 
d="M11 441q76 36 140 54q27 7 54.5 11.5t51.5 3t42 -10.5t26 -28q11 -46 -7 -106q-8 -26 -23 -56.5t-40 -66.5t-61.5 -76.5t-88.5 -85.5l178 31l-17 -70l-233 -58l-9 118q59 59 102 112q18 22 35 45.5t29 45.5t17 40.5t0 31.5q-9 15 -31 14q-10 0 -23.5 -4t-32 -13
t-42.5 -24t-55 -39z" />
    <glyph glyph-name="three" unicode="3" horiz-adv-x="370" 
d="M8 445q78 32 142 49q27 7 54.5 11.5t50 3t39 -9t22.5 -24.5q10 -31 6 -69q-4 -32 -23 -76t-69 -97q26 5 44 1q16 -4 27 -17t6 -44q-8 -38 -35 -71q-23 -29 -71 -59t-131 -48l-4 71q36 10 64 23q24 11 43.5 28t19.5 40q-4 9 -16 12q-11 2 -32.5 -2.5t-59.5 -24.5l-3 86
q31 10 57 28q22 16 40.5 42t20.5 65q-3 21 -21 25q-8 2 -20.5 0.5t-30.5 -8t-42 -20.5t-56 -36z" />
    <glyph glyph-name="four" unicode="4" horiz-adv-x="364" 
d="M276 128l-5 -106l-71 -26l-6 108l-183 -55l74 348l93 -9l-5 90l122 35l-15 -315l68 13l2 -62zM190 182l-8 144l-63 -157z" />
    <glyph glyph-name="five" unicode="5" horiz-adv-x="295" 
d="M53 142l-32 316l238 60l-4 -97l-121 -44l-2 -127q41 8 74 4q28 -3 50 -17t21 -48q-2 -38 -28 -74q-11 -15 -28 -31.5t-42.5 -32.5t-60.5 -30.5t-81 -25.5l-3 71q32 8 59 20q23 11 44 26.5t26 38.5q-4 13 -16 17q-11 4 -33 -0.5t-61 -25.5z" />
    <glyph glyph-name="six" unicode="6" horiz-adv-x="406" 
d="M178 173q31 21 56 32t44 13.5t33.5 -1t24.5 -10.5q24 -17 33 -53q5 -35 -1.5 -61t-19.5 -44t-30.5 -29.5t-34 -18t-30 -9t-18.5 -2.5q-57 -3 -90.5 16t-50 50.5t-19.5 69t0.5 72t9.5 60.5t8 33q19 60 46.5 99.5t58.5 63t62 34t55.5 14t40 2.5t16.5 -1l-32 -220l-81 -21
l-5 68q-28 -20 -42.5 -46.5t-22.5 -51.5q-9 -29 -11 -59zM230 56q19 5 32.5 17.5t13.5 26.5t-13.5 21t-32.5 2q-19 -4 -32 -16.5t-13 -26.5t13 -21t32 -3z" />
    <glyph glyph-name="seven" unicode="7" horiz-adv-x="318" 
d="M8 448l300 67l-135 -512l-69 -19l61 389l-131 -45z" />
    <glyph glyph-name="eight" unicode="8" horiz-adv-x="382" 
d="M271 212q28 -9 45 -30t18 -51q0 -23 -10.5 -46t-29.5 -42.5t-44 -34.5t-53 -21q-29 -7 -54 -4t-43.5 14.5t-29.5 29.5t-11 41q-1 28 13.5 54.5t39.5 47.5q-42 10 -68.5 41.5t-26.5 79.5q0 34 13.5 67.5t37 62t55 50t67.5 31.5q36 9 67.5 4.5t55.5 -20.5t38 -42.5
t14 -60.5q0 -48 -26 -93.5t-68 -77.5zM238 99q4 18 -7 28.5t-30 7.5t-34 -17.5t-19 -31.5q-3 -18 7.5 -28t29.5 -8q19 3 34.5 17.5t18.5 31.5zM243 309q5 29 -9.5 46.5t-39.5 12.5t-45.5 -29t-25.5 -53t9.5 -46.5t39.5 -12.5t45.5 29t25.5 53z" />
    <glyph glyph-name="nine" unicode="9" horiz-adv-x="381" 
d="M365 371q0 -3 -1 -11t-6 -37q-5 -23 -16 -57.5t-29 -78t-45 -94t-65 -104.5l-77 -1q11 23 22 51q10 24 22 57t26 75q-2 0 -8 -2q-36 -6 -68 1.5t-56 26t-38 47t-14 63.5t14 68.5t38 61t56 46.5t68 26q37 6 69 -1.5t56 -26t38 -47t14 -63.5zM241 302q6 29 -7 49t-39 20
q-25 0 -47 -20t-28 -49t7.5 -49t38.5 -20t47 20t28 49z" />
    <glyph glyph-name="colon" unicode=":" horiz-adv-x="191" 
d="M176 212q0 -21 -19.5 -40.5t-47.5 -25.5q-27 -5 -46.5 6t-19.5 33t19.5 41.5t46.5 24.5q28 6 47.5 -5.5t19.5 -33.5zM164 53q0 -21 -19.5 -40.5t-47.5 -25.5q-27 -5 -46.5 6t-19.5 33t19.5 41.5t46.5 24.5q28 6 47.5 -5.5t19.5 -33.5z" />
    <glyph glyph-name="semicolon" unicode=";" horiz-adv-x="191" 
d="M176 212q0 -21 -19.5 -40.5t-47.5 -25.5q-27 -5 -46.5 6t-19.5 33t19.5 41.5t46.5 24.5q28 6 47.5 -5.5t19.5 -33.5zM41 101l135 19l-61 -158l-73 -12z" />
    <glyph glyph-name="less" unicode="&#x3c;" horiz-adv-x="253" 
d="M173 456l14 -7q7 -3 15 -7.5t17 -8.5q20 -11 46 -23l-158 -191l123 -183l-50 -45l-175 228l84 118q16 22 31 43.5t26.5 38t19 27z" />
    <glyph glyph-name="equal" unicode="=" horiz-adv-x="222" 
d="M204 314l-184 -100l1 114l189 66zM21 183l189 66l-6 -81l-184 -100z" />
    <glyph glyph-name="greater" unicode="&#x3e;" horiz-adv-x="348" 
d="M145 -17q-1 -1 -8.5 4t-17.5 10q-11 6 -25 15l124 201l-163 174l69 60l182 -223q-45 -68 -80 -121q-15 -23 -30 -44.5t-26 -38.5q-13 -20 -25 -37z" />
    <glyph glyph-name="question" unicode="?" horiz-adv-x="390" 
d="M135 105q28 6 47.5 -5.5t19.5 -33.5q0 -21 -19.5 -40.5t-47.5 -25.5q-28 -5 -47 6t-19 33t19 41.5t47 24.5zM328 494q13 -47 2 -96q-5 -21 -15 -45t-28.5 -48.5t-46.5 -49.5t-68 -49l-3 -53l-66 -17l-12 114q33 9 59 27q22 15 40.5 40.5t19.5 66.5q0 12 -9 18
q-8 5 -26 4.5t-52 -13.5l-7 -77l-60 -26l-34 174q2 1 24 9.5t53.5 19.5t68 20.5t70 12.5t58 -3.5t32.5 -28.5z" />
    <glyph glyph-name="at" unicode="@" horiz-adv-x="606" 
d="M303 519q59 7 110.5 -7.5t90 -47t61 -79t22.5 -103.5q0 -43 -13 -84t-36.5 -77t-56.5 -65.5t-72 -49.5l-57 35l-8 89q-42 -30 -72 -35t-50 0q-24 6 -40 24q-25 38 -24 71.5t12 59.5q12 30 37 55q38 32 75.5 50t68.5 27q36 10 69 12l-11 -328q51 34 82.5 87.5t31.5 113.5
q0 44 -17.5 81t-48 62t-71 37t-86.5 6t-86.5 -28t-70.5 -55t-47.5 -74.5t-17.5 -85.5q0 -42 15.5 -77t42.5 -60t64 -38.5t79 -11.5l-11 -53q-53 0 -98 17.5t-79 49.5t-53 76t-19 96q0 57 22.5 109.5t61 94.5t90 70t110.5 36zM243 191q0 -6 3.5 -14.5t13.5 -11.5t28.5 2.5
t49.5 26.5l-10 72q-22 -6 -40 -17q-15 -9 -29 -23.5t-16 -34.5z" />
    <glyph glyph-name="A" unicode="A" 
d="M227 142l-146 -74l-21 -72l-57 -9l62 464l198 75l59 -476l-61 -29zM209 224l-42 154l-51 -194z" />
    <glyph glyph-name="B" unicode="B" horiz-adv-x="375" 
d="M341 228q11 -8 10.5 -31t-11.5 -54q-14 -34 -48 -64q-15 -13 -35.5 -26t-48 -25t-63.5 -21.5t-81 -15.5l-31 300l-20 -7l-22 137q15 9 35.5 18t41 16.5t37.5 13.5t25 9q24 9 51 16.5t53 12t51.5 5.5t46.5 -4q10 -2 20.5 -13.5t15 -32.5t1 -51.5t-21.5 -71.5
q-6 -15 -16 -32q-8 -14 -21 -32t-32 -36q11 2 22 2q10 0 21 -3t20 -10zM131 77q43 13 65.5 27t31.5 26q11 14 10 28q0 16 -16 17t-36 -5q-23 -7 -52 -21zM243 362q2 23 -14 28t-36 0q-24 -5 -54 -19l-4 -136q40 14 61.5 35.5t32.5 41.5q12 24 14 50z" />
    <glyph glyph-name="C" unicode="C" horiz-adv-x="324" 
d="M330 110q-30 -48 -81.5 -79t-107.5 -37q-23 -3 -43.5 3.5t-36.5 19.5t-27.5 30t-17.5 37q-11 35 -11.5 74.5t7.5 78.5t23 76t36 68q22 32 49.5 57.5t63.5 43.5q13 7 30 13t34.5 9.5t35 5t32.5 -0.5l-55 -285l-68 -19l-3 130q-25 -17 -44 -45q-17 -24 -29.5 -62.5
t-9.5 -95.5q1 -21 15.5 -35.5t39 -16t57 15.5t68.5 59z" />
    <glyph glyph-name="D" unicode="D" horiz-adv-x="364" 
d="M352 472q15 -26 19 -60q4 -29 -1 -72t-28 -98q-24 -55 -60.5 -97.5t-76 -73.5t-77 -50.5t-62.5 -28.5l-31 300l-21 -9l-28 140q25 11 55.5 25.5t63.5 27.5t67.5 23t66.5 12t61 -6.5t52 -32.5zM136 113q45 27 70 68.5t37 79.5q14 45 17 94q-1 30 -19.5 36.5t-40.5 2.5
q-26 -4 -59 -20z" />
    <glyph glyph-name="E" unicode="E" horiz-adv-x="283" 
d="M115 358l-3 -103l150 41l-12 -66l-140 -69l-2 -54l139 47l-8 -68l-197 -102l-46 469l156 34q29 6 57.5 12.5t50.5 11t35.5 7l13.5 2.5q0 -2 -3.5 -17t-8.5 -34q-5 -22 -12 -49z" />
    <glyph glyph-name="F" unicode="F" horiz-adv-x="288" 
d="M122 357l-2 -102l149 43l-12 -66l-140 -74l-3 -141l-65 -36l-50 467l314 74l-21 -100z" />
    <glyph glyph-name="G" unicode="G" horiz-adv-x="373" 
d="M363 346l-39 -342l-67 -22v66q-54 -35 -116 -43q-23 -3 -43.5 3.5t-36.5 19.5t-27.5 30t-17.5 37q-11 35 -11.5 74.5t7 78.5t22.5 76t36 68q22 32 50 57.5t64 43.5q13 7 30 13t34.5 9.5t35 5t32.5 -0.5l-30 -149q-15 2 -31 0q-14 -2 -31 -7.5t-35 -17.5q-25 -17 -44 -45
q-17 -24 -29.5 -62.5t-9.5 -95.5q1 -18 13 -32t32 -18t47 5t58 37v90l-94 -23l14 73z" />
    <glyph glyph-name="H" unicode="H" horiz-adv-x="324" 
d="M320 516l-45 -457l-74 -18l-3 131l-71 -33l-2 -130l-72 -22l-48 444l126 28l-3 -224l68 19l-5 240z" />
    <glyph glyph-name="I" unicode="I" horiz-adv-x="166" 
d="M50 0l-27 468l123 35l-26 -477z" />
    <glyph glyph-name="J" unicode="J" horiz-adv-x="304" 
d="M293 430l-44 -17l-22 -404l-70 -26l-135 101l56 58l73 -47l-16 276l-114 -44l-7 130l281 63z" />
    <glyph glyph-name="K" unicode="K" horiz-adv-x="361" 
d="M126 461l4 -197l118 250l108 -35l-150 -264l210 -33l-24 -57l-264 -10l-6 -114l-66 -12l-46 441z" />
    <glyph glyph-name="L" unicode="L" horiz-adv-x="226" 
d="M21 481l112 28l-20 -386l140 49l-6 -73l-202 -105z" />
    <glyph glyph-name="M" unicode="M" horiz-adv-x="506" 
d="M4 -11l48 431l170 35l13 -269l39 306l172 39l56 -457l-63 -27l-77 320l-99 -377l-48 -18l-81 312l-66 -290z" />
    <glyph glyph-name="N" unicode="N" 
d="M56 -13l-48 444l127 28l77 -285l-18 320l129 22l-44 -457l-74 -18l-81 159l4 -191z" />
    <glyph glyph-name="O" unicode="O" horiz-adv-x="394" 
d="M389 302q2 -40 -11.5 -78.5t-39 -70.5t-60 -54.5t-74.5 -30.5t-76 0t-63.5 29t-44.5 53t-19 73q-2 40 12 78.5t39 70.5t59.5 54.5t74.5 30.5t76.5 0t64 -29t44 -53.5t18.5 -72.5zM200 151q18 4 34 15t28 27t18.5 34.5t5.5 38.5t-9 36t-21 26.5t-29.5 14.5t-34.5 0
q-19 -4 -35 -15.5t-28 -27t-18 -34.5t-5 -39q2 -39 29 -61.5t65 -14.5z" />
    <glyph glyph-name="P" unicode="P" horiz-adv-x="365" 
d="M369 469q8 -25 5 -57q-2 -27 -16.5 -64t-50.5 -81q-19 -22 -45 -45q-22 -20 -53.5 -43t-69.5 -43l-5 -134l-66 -12l-31 295l-21 -9l-28 140q24 11 58.5 26t72 30t76.5 26t73.5 13t61 -7t39.5 -35zM251 357q4 26 -11.5 31.5t-37.5 1.5q-26 -5 -59 -20l-2 -146
q36 20 58 43.5t33 43.5q13 23 19 46z" />
    <glyph glyph-name="Q" unicode="Q" horiz-adv-x="524" 
d="M527 146l-57 -3q-33 -55 -85.5 -94.5t-116.5 -52.5q-53 -11 -100 -0.5t-83 38.5t-58.5 70.5t-24.5 95.5q-3 53 15 103.5t51 92.5t78.5 71t98.5 40t100.5 0.5t83.5 -38t58 -70t25 -95.5q1 -48 -12 -93l51 -8zM264 71q31 7 57 24.5t45 43.5l-164 -7l34 120l168 -26
q3 20 2 36q-2 33 -14.5 59t-33.5 43.5t-49 24t-59 -0.5t-57.5 -25t-45.5 -44t-29.5 -57.5t-9.5 -64.5t14.5 -59t34.5 -43.5t48.5 -24t58.5 0.5z" />
    <glyph glyph-name="R" unicode="R" horiz-adv-x="386" 
d="M433 183l-24 -58l-264 -10l-5 -113l-66 -12l-31 295l-21 -9l-28 140q23 10 57.5 25.5t73 30.5t78.5 26t74.5 13.5t60.5 -7t37 -35.5q9 -25 5 -57q-3 -27 -17.5 -64t-50.5 -81q-6 -7 -14 -16q-7 -8 -17.5 -17.5t-23.5 -20.5zM256 357q4 26 -11.5 31.5t-37.5 1.5
q-26 -5 -59 -20l-2 -146q36 20 58 43.5t33 43.5q13 23 19 46z" />
    <glyph glyph-name="S" unicode="S" horiz-adv-x="280" 
d="M210 252q29 -12 40 -36t13 -47q1 -18 -3.5 -39t-19 -45t-40 -50.5t-64.5 -54.5l-17 -13l-33 57q18 11 31.5 22t22.5 19q11 10 18 19q18 24 15.5 42t-15.5 31t-30.5 22t-29.5 15q-32 15 -50.5 33t-28 35.5t-12 32t-2.5 20.5q-2 53 14 87t40.5 55t51.5 32.5t48 20.5
q23 8 43.5 13t37.5 8q19 4 36 5l-35 -220l-56 -9l-13 83q-22 -6 -31.5 -18t-11.5 -24q-4 -14 0 -31q4 -13 14 -23t22 -18t24 -14t21 -10z" />
    <glyph glyph-name="T" unicode="T" horiz-adv-x="297" 
d="M293 430l-88 -31l-18 -379l-74 -30l-19 369l-88 -32l-7 130l296 63z" />
    <glyph glyph-name="U" unicode="U" horiz-adv-x="312" 
d="M123 460l-5 -290l68 81l-4 243l129 23l-44 -458l-74 -17l-2 92l-78 -118l-68 -28l-49 444z" />
    <glyph glyph-name="V" unicode="V" horiz-adv-x="313" 
d="M206 482l119 28l-113 -477l-87 -30l-141 430l104 49l71 -337z" />
    <glyph glyph-name="W" unicode="W" horiz-adv-x="517" 
d="M533 526l-109 -455l-88 -19l-70 253l-74 -299l-98 -30l-105 450l117 55l38 -375l44 393l140 39l49 -349l28 321z" />
    <glyph glyph-name="X" unicode="X" horiz-adv-x="323" 
d="M212 247l95 -181l-49 -53l-97 143l-92 -162l-76 -2l112 246l-107 159l92 84l67 -128l67 147l128 -6z" />
    <glyph glyph-name="Y" unicode="Y" horiz-adv-x="313" 
d="M350 501q0 -1 -10.5 -23t-27 -57.5t-37.5 -80.5t-43 -92l-118 -250l-72 6l73 193l-122 196l85 88l80 -172l75 200z" />
    <glyph glyph-name="Z" unicode="Z" horiz-adv-x="278" 
d="M-3 446l326 74l-199 -416l136 50l-8 -68l-198 -106l-27 91l102 287l-113 -29z" />
    <glyph glyph-name="bracketleft" unicode="[" horiz-adv-x="240" 
d="M48 -115l-25 657l203 58l-6 -78l-75 -28l-23 -517l78 19l-4 -62l-148 -49v0z" />
    <glyph glyph-name="backslash" unicode="\" horiz-adv-x="424" 
d="M420 6l-66 -19l-351 450l50 34q19 13 35.5 23.5t18.5 10.5z" />
    <glyph glyph-name="bracketright" unicode="]" horiz-adv-x="237" 
d="M42 -79l-5 58l78 29l-23 503l-75 -18l-6 75l203 64l-25 -672z" />
    <glyph glyph-name="asciicircum" unicode="^" horiz-adv-x="243" 
d="M11 359l110 157l117 -101l-37 -32l-79 30l-70 -67l-41 13v0z" />
    <glyph glyph-name="underscore" unicode="_" horiz-adv-x="350" 
d="M16 23l323 93l-5 -80l-319 -127z" />
    <glyph glyph-name="grave" unicode="`" horiz-adv-x="191" 
d="M150 397l-139 52l40 66l124 -81z" />
    <glyph glyph-name="a" unicode="a" horiz-adv-x="322" 
d="M261 21l-34 121l-146 -74l-21 -72l-57 -9l62 464l198 75l59 -476zM116 184l93 40l-42 154z" />
    <glyph glyph-name="b" unicode="b" horiz-adv-x="373" 
d="M341 228q11 -8 10.5 -31t-11.5 -54q-14 -34 -48 -64q-15 -13 -35.5 -26t-48 -25t-63.5 -21.5t-81 -15.5l-31 300l-20 -7l-22 137q15 9 35.5 18t41 16.5t37.5 13.5t25 9q24 9 51 16.5t53 12t51.5 5.5t46.5 -4q10 -2 20.5 -13.5t15 -32.5t1 -51.5t-21.5 -71.5
q-6 -15 -16 -32q-8 -14 -21 -32t-32 -36q11 2 22 2q10 0 21 -3t20 -10zM131 77q43 13 65.5 27t31.5 26q11 14 10 28q0 16 -16 17t-36 -5q-23 -7 -52 -21zM243 362q2 23 -14 28t-36 0q-24 -5 -54 -19l-4 -136q40 14 61.5 35.5t32.5 41.5q12 24 14 50z" />
    <glyph glyph-name="c" unicode="c" 
d="M330 110q-30 -48 -81.5 -79t-107.5 -37q-23 -3 -43.5 3.5t-36.5 19.5t-27.5 30t-17.5 37q-11 35 -11.5 74.5t7.5 78.5t23 76t36 68q22 32 49.5 57.5t63.5 43.5q13 7 30 13t34.5 9.5t35 5t32.5 -0.5l-55 -285l-68 -19l-3 130q-25 -17 -44 -45q-17 -24 -29.5 -62.5
t-9.5 -95.5q1 -21 15.5 -35.5t39 -16t57 15.5t68.5 59z" />
    <glyph glyph-name="d" unicode="d" horiz-adv-x="361" 
d="M352 472q15 -26 19 -60q4 -29 -1 -72t-28 -98q-24 -55 -60.5 -97.5t-76 -73.5t-77 -50.5t-62.5 -28.5l-31 300l-21 -9l-28 140q25 11 55.5 25.5t63.5 27.5t67.5 23t66.5 12t61 -6.5t52 -32.5zM136 113q45 27 70 68.5t37 79.5q14 45 17 94q-1 30 -19.5 36.5t-40.5 2.5
q-26 -4 -59 -20z" />
    <glyph glyph-name="e" unicode="e" horiz-adv-x="283" 
d="M115 358l-3 -103l150 41l-12 -66l-140 -69l-2 -54l139 47l-8 -68l-197 -102l-46 469l156 34q29 6 57.5 12.5t50.5 11t35.5 7l13.5 2.5q0 -2 -3.5 -17t-8.5 -34q-5 -22 -12 -49z" />
    <glyph glyph-name="f" unicode="f" horiz-adv-x="288" 
d="M122 357l-2 -102l149 43l-12 -66l-140 -74l-3 -141l-65 -36l-50 467l314 74l-21 -100z" />
    <glyph glyph-name="g" unicode="g" horiz-adv-x="373" 
d="M363 346l-39 -342l-67 -22v66q-54 -35 -116 -43q-23 -3 -43.5 3.5t-36.5 19.5t-27.5 30t-17.5 37q-11 35 -11.5 74.5t7 78.5t22.5 76t36 68q22 32 50 57.5t64 43.5q13 7 30 13t34.5 9.5t35 5t32.5 -0.5l-30 -149q-15 2 -31 0q-14 -2 -31 -7.5t-35 -17.5q-25 -17 -44 -45
q-17 -24 -29.5 -62.5t-9.5 -95.5q1 -18 13 -32t32 -18t47 5t58 37v90l-94 -23l14 73z" />
    <glyph glyph-name="h" unicode="h" horiz-adv-x="318" 
d="M320 516l-45 -457l-74 -18l-3 131l-71 -33l-2 -130l-72 -22l-48 444l126 28l-3 -224l68 19l-5 240z" />
    <glyph glyph-name="i" unicode="i" horiz-adv-x="163" 
d="M50 0l-27 468l123 35l-26 -477z" />
    <glyph glyph-name="j" unicode="j" horiz-adv-x="292" 
d="M293 430l-44 -17l-22 -404l-70 -26l-135 101l56 58l73 -47l-16 276l-114 -44l-7 130l281 63z" />
    <glyph glyph-name="k" unicode="k" horiz-adv-x="356" 
d="M10 430l116 31l4 -197l118 250l108 -35l-150 -264l210 -33l-24 -57l-264 -10l-6 -114l-66 -12l-46 441v0z" />
    <glyph glyph-name="l" unicode="l" horiz-adv-x="227" 
d="M21 481l112 28l-20 -386l140 49l-6 -73l-202 -105z" />
    <glyph glyph-name="m" unicode="m" horiz-adv-x="498" 
d="M4 -11l48 431l170 35l13 -269l39 306l172 39l56 -457l-63 -27l-77 320l-99 -377l-48 -18l-81 312l-66 -290l-64 -5v0z" />
    <glyph glyph-name="n" unicode="n" 
d="M56 -13l-48 444l127 28l77 -285l-18 320l129 22l-44 -457l-74 -18l-81 159l4 -191l-72 -22v0z" />
    <glyph glyph-name="o" unicode="o" horiz-adv-x="511" 
d="M513 304q2 -53 -15.5 -104t-50.5 -93t-78.5 -71.5t-98.5 -39.5q-53 -11 -100.5 -0.5t-83.5 38.5t-58 70.5t-25 95.5q-2 53 16 103.5t51 92.5t78.5 71t98.5 40q52 11 99.5 0.5t83.5 -38t58.5 -70t24.5 -95.5zM265 71q31 7 57.5 25t46 44t30 57.5t9.5 64.5q-2 33 -15 59
t-34 43.5t-48.5 24t-58.5 -0.5t-57.5 -25t-46 -44t-30 -57.5t-8.5 -64.5q1 -33 14 -59t34 -43.5t48.5 -24t58.5 0.5z" />
    <glyph glyph-name="p" unicode="p" horiz-adv-x="352" 
d="M369 469q8 -25 5 -57q-2 -27 -16.5 -64t-50.5 -81q-19 -22 -45 -45q-22 -20 -53.5 -43t-69.5 -43l-5 -134l-66 -12l-31 295l-21 -9l-28 140q24 11 58.5 26t72 30t76.5 26t73.5 13t61 -7t39.5 -35zM251 357q4 26 -11.5 31.5t-37.5 1.5q-26 -5 -59 -20l-2 -146
q36 20 58 43.5t33 43.5q13 23 19 46z" />
    <glyph glyph-name="q" unicode="q" horiz-adv-x="528" 
d="M527 146l-57 -3q-33 -55 -85.5 -94.5t-116.5 -52.5q-53 -11 -100 -0.5t-83 38.5t-58.5 70.5t-24.5 95.5q-3 53 15 103.5t51 92.5t78.5 71t98.5 40t100.5 0.5t83.5 -38t58 -70t25 -95.5q1 -48 -12 -93l51 -8zM264 71q31 7 57 24.5t45 43.5l-164 -7l34 120l168 -26
q3 20 2 36q-2 33 -14.5 59t-33.5 43.5t-49 24t-59 -0.5t-57.5 -25t-45.5 -44t-29.5 -57.5t-9.5 -64.5t14.5 -59t34.5 -43.5t48.5 -24t58.5 0.5z" />
    <glyph glyph-name="r" unicode="r" horiz-adv-x="382" 
d="M433 183l-24 -58l-264 -10l-5 -113l-66 -12l-31 295l-21 -9l-28 140q23 10 57.5 25.5t73 30.5t78.5 26t74.5 13.5t60.5 -7t37 -35.5q9 -25 5 -57q-3 -27 -17.5 -64t-50.5 -81q-6 -7 -14 -16q-7 -8 -17.5 -17.5t-23.5 -20.5zM256 357q4 26 -11.5 31.5t-37.5 1.5
q-26 -5 -59 -20l-2 -146q36 20 58 43.5t33 43.5q13 23 19 46z" />
    <glyph glyph-name="s" unicode="s" horiz-adv-x="279" 
d="M210 252q29 -12 40 -36t13 -47q1 -18 -3.5 -39t-19 -45t-40 -50.5t-64.5 -54.5l-17 -13l-33 57q18 11 31.5 22t22.5 19q11 10 18 19q18 24 15.5 42t-15.5 31t-30.5 22t-29.5 15q-32 15 -50.5 33t-28 35.5t-12 32t-2.5 20.5q-2 53 14 87t40.5 55t51.5 32.5t48 20.5
q23 8 43.5 13t37.5 8q19 4 36 5l-35 -220l-56 -9l-13 83q-22 -6 -31.5 -18t-11.5 -24q-4 -14 0 -31q4 -13 14 -23t22 -18t24 -14t21 -10z" />
    <glyph glyph-name="t" unicode="t" horiz-adv-x="283" 
d="M295 520l-2 -90l-88 -31l-18 -379l-74 -30l-19 369l-88 -32l-7 130l296 63v0z" />
    <glyph glyph-name="u" unicode="u" horiz-adv-x="313" 
d="M-4 432l127 28l-5 -290l68 81l-4 243l129 23l-44 -458l-74 -17l-2 92l-78 -118l-68 -28l-49 444v0z" />
    <glyph glyph-name="v" unicode="v" horiz-adv-x="313" 
d="M206 482l119 28l-113 -477l-87 -30l-141 430l104 49l71 -337l47 337v0z" />
    <glyph glyph-name="w" unicode="w" horiz-adv-x="511" 
d="M533 526l-109 -455l-88 -19l-70 253l-74 -299l-98 -30l-105 450l117 55l38 -375l44 393l140 39l49 -349l28 321l128 16v0z" />
    <glyph glyph-name="x" unicode="x" horiz-adv-x="318" 
d="M352 494l-140 -247l95 -181l-49 -53l-97 143l-92 -162l-76 -2l112 246l-107 159l92 84l67 -128l67 147l128 -6v0z" />
    <glyph glyph-name="y" unicode="y" horiz-adv-x="309" 
d="M350 501q0 -1 -10.5 -23t-27 -57.5t-37.5 -80.5t-43 -92l-118 -250l-72 6l73 193l-122 196l85 88l80 -172l75 200z" />
    <glyph glyph-name="z" unicode="z" horiz-adv-x="283" 
d="M-3 446l326 74l-199 -416l136 50l-8 -68l-198 -106l-27 91l102 287l-113 -29l-19 117v0z" />
    <glyph glyph-name="braceleft" unicode="{" horiz-adv-x="466" 
d="M338 235l-315 -97l1 114l320 64zM419 98l-198 -146l-26 111l210 115zM361 379l-223 25l59 98l210 -56z" />
    <glyph glyph-name="bar" unicode="|" horiz-adv-x="161" 
d="M115 -49l-70 -26l-26 591l122 35l-26 -600v0z" />
    <glyph glyph-name="braceright" unicode="}" horiz-adv-x="479" 
d="M139 247l315 98l-1 -114l-319 -64zM58 384l198 147l26 -111l-210 -115zM116 104l223 -25l-59 -99l-210 57z" />
    <glyph glyph-name="asciitilde" unicode="~" horiz-adv-x="235" 
d="M15 249q8 16 20 29q11 11 27.5 21.5t40.5 13.5q7 -1 14 -5q6 -4 13 -11.5t14 -21.5q7 -8 16 -10q8 -2 18.5 2t24.5 21l19 -63q-13 -14 -27 -24q-12 -8 -28 -13t-33 0q-8 10 -17 18q-8 7 -16 11t-16 2q-4 -3 -8 -7t-8.5 -10t-9.5 -14z" />
    <glyph glyph-name="cent" unicode="&#xa2;" horiz-adv-x="260" 
d="M248 135q-12 -16 -26 -32q-18 -17 -43 -30l-3 -75l-27 -24l-14 83q-5 -2 -9.5 -2.5t-9.5 -1.5q-33 -4 -56 16t-31 47q-8 25 -8.5 52.5t4.5 54.5t16 53t26 47q19 29 45 50l-12 106l58 18l-2 -98q18 8 40.5 12.5t41.5 1.5l-39 -199l-47 -14l-2 92q-18 -12 -31 -31
q-11 -17 -20 -44t-7 -67q1 -15 11 -25.5t27 -11t39.5 11t48.5 41.5l30 -31v0z" />
    <glyph glyph-name="sterling" unicode="&#xa3;" horiz-adv-x="308" 
d="M294 414q-17 -11 -40.5 -21.5t-57.5 -24.5q1 11 -0.5 28t-14.5 22q-8 3 -15.5 0.5t-13 -16.5t-8.5 -42.5t-2 -77.5l73 25l-6 -81l-72 -39l-3 -72l140 49l-7 -73l-201 -105l-12 156l-29 -16l1 115l17 6q-1 35 -6 72t-1 71q5 44 38.5 77t75.5 43q17 4 38.5 4.5t42.5 -8.5
t38 -30.5t25 -61.5z" />
    <glyph glyph-name="ydieresis" unicode="&#xff;" horiz-adv-x="131" 
 />
    <glyph glyph-name="endash" unicode="&#x2013;" horiz-adv-x="443" 
d="M230 224l188 66l-5 -80l-184 -100zM16 228l188 66l-5 -80l-184 -100z" />
    <glyph glyph-name="emdash" unicode="&#x2014;" horiz-adv-x="437" 
d="M230 224l188 66l-5 -80l-184 -100zM16 228l188 66l-5 -80l-184 -100z" />
    <glyph glyph-name="quoteleft" unicode="&#x2018;" horiz-adv-x="185" 
d="M30 471l130 39l-35 -166l-71 -23z" />
    <glyph glyph-name="quoteright" unicode="&#x2019;" horiz-adv-x="185" 
d="M30 471l130 39l-35 -166l-71 -23z" />
    <glyph glyph-name="quotedblleft" unicode="&#x201c;" horiz-adv-x="337" 
d="M42 471l131 39l-36 -166l-70 -23zM314 510l-36 -166l-70 -23l-25 150z" />
    <glyph glyph-name="quotedblright" unicode="&#x201d;" horiz-adv-x="345" 
d="M42 471l131 39l-36 -166l-70 -23zM314 510l-36 -166l-70 -23l-25 150z" />
    <glyph glyph-name="ellipsis" unicode="&#x2026;" horiz-adv-x="582" 
d="M164 53q0 -21 -19.5 -40.5t-47.5 -25.5q-27 -5 -46.5 6t-19.5 33t19.5 41.5t46.5 24.5q28 6 47.5 -5.5t19.5 -33.5zM358 53q0 -21 -19.5 -40.5t-47.5 -25.5q-27 -5 -46.5 6t-19.5 33t19.5 41.5t46.5 24.5q28 6 47.5 -5.5t19.5 -33.5zM552 53q0 -21 -19.5 -40.5
t-47.5 -25.5q-27 -5 -46.5 6t-19.5 33t19.5 41.5t46.5 24.5q28 6 47.5 -5.5t19.5 -33.5z" />
    <glyph glyph-name="Euro" unicode="&#x20ac;" horiz-adv-x="398" 
d="M381 106q-16 -25 -37 -45q-30 -29 -70 -48t-82 -24q-23 -3 -43.5 3.5t-36.5 19.5t-27.5 30t-17.5 37q0 2 -1 4l-55 -17l1 71l44 9v23l-45 -13l1 70l52 11q8 38 23 73.5t35 65.5q22 32 49.5 57.5t63.5 43.5q13 7 30 13t34.5 9.5t35 5t32.5 -0.5l-28 -146q-32 0 -56 -8
t-42 -19q-10 -6 -20 -16q-9 -8 -19 -21.5t-19 -31.5l99 21l-6 -50l-114 -33l-2 -16t-2 -17l124 27l-6 -50l-115 -34q6 -17 22.5 -26.5t40 -7.5t52.5 19.5t62 55.5z" />
    <glyph glyph-name="trademark" unicode="&#x2122;" horiz-adv-x="552" 
d="M474 521l35 -287l-39 -17l-49 201l-62 -238l-30 -11l-51 197l-41 -183l-41 -3l31 271l106 22l9 -169l24 193zM221 514l-1 -57l-55 -19l-12 -239l-46 -18l-12 232l-55 -20l-5 81z" />
    </font>
</defs>
</svg>
